<svg xmlns="http://www.w3.org/2000/svg" width="100%" height="100%" style="">
<title>Landscape shapes</title>

<g>
<path fill="#4a90d6" stroke-width="2" stroke-linejoin="round" fill-rule="nonzero" id="svg_1" d="M47.30068,110.9478L118.41171,147.49412L185.07846,110.9478L158.76533,192.04455L73.61388,192.04455L47.30068,110.9478z"/></g>



<g transform="translate(200,0)">
<path fill="#4a90b6" stroke-width="2" stroke-linejoin="round" fill-rule="nonzero" id="svg_3" d="M70.39048415153503,9.701047012557986 L100.11270415153504,65.11772701255798 L133.44603415153503,125.30291701255797 L70.39048415153503,156.83068701255797 L7.334924151535034,125.30291701255797 L70.39048415153503,9.701047012557986 zL200.66826415153503,158.45106701255798 " transform="rotate(-90 104.00158691406251,84.07605743408203) "/></g>

<g transform="translate(400,0)">
<path fill="#4a90g6" stroke-width="2" stroke-linejoin="round" fill-rule="nonzero" id="svg_4" d="M102.05715208976746,35.256602356185915 L131.77937208976746,90.67328235618591 L165.11270208976745,150.8584723561859 L102.05715208976746,182.3862423561859 L39.001592089767456,150.8584723561859 L102.05715208976746,35.256602356185915 zL232.33493208976745,184.00662235618591 " transform="rotate(89.83651733398438 135.66827392578125,109.6316146850586) "/></g>

<g transform="translate(600,0)">
<path fill="#4a90e6" stroke-width="2" stroke-linejoin="round" fill-rule="nonzero" id="svg_5" d="M104.83493,14.14549L134.55715,69.56217L167.89048,129.74736L104.83493,161.27513L41.77937,129.74736L104.83493,14.14549zL235.11271,162.89551"/></g>

<g transform="translate(800,0)">
<path fill="#3a90d6" stroke-width="2" stroke-linejoin="round" fill-rule="nonzero" id="svg_6" d="M48.43946686722227,96.17207865356494 L74.99883123792478,50.66171279391338 L149.1160649082715,122.44941627490333 L148.80975383227891,122.44941627490333 L149.11607756157107,122.9933894099598 L148.25994265935964,122.60095808655431 L148.25994265935964,122.29789950113943 L149.11607756157107,123.29646051431824 L148.80975383227891,121.75392636608295 L149.1160649082715,122.44941627490333 L74.99883123792478,194.23714479378035 L48.43946686722227,148.7267789341288 L48.43946686722227,96.17207865356494 z" transform="rotate(90 117.66667175292969,84.88889312744142)"/></g>

<g transform="translate(1000,0)">
<path fill="#4a90d6" stroke-width="2" stroke-linejoin="round" fill-rule="nonzero"  id="svg_2" d="M70.39048415153503,9.701047012557986 L100.11270415153504,65.11772701255798 L133.44603415153503,125.30291701255797 L70.39048415153503,156.83068701255797 L7.334924151535034,125.30291701255797 L70.39048415153503,9.701047012557986 zL200.66826415153503,158.45106701255798 " class="selected" transform="rotate(-180 104.0015869140625,84.0760498046875) "/>
</g>

<g transform="translate(0,400)">
<path fill="#4a90d6" stroke-width="2" stroke-linejoin="round"  fill-rule="nonzero" id="svg_8" d="M47.30068,110.39224441795349 L118.41171,146.9385644179535 L185.07846,110.39224441795349 L158.76533,191.48899441795348 L73.61388,191.48899441795348 L47.30068,110.39224441795349 z" transform="rotate(-180 116.18957519531251,150.94061279296875) "/></g>

<g transform="translate(200,400)">
<path fill="#4a90d6" stroke-width="2" stroke-linejoin="round" fill-rule="nonzero" id="svg_9" d="M64.98957150431474,109.56436683554094 L141.81505441662765,53.33062171461473 L218.64071779192975,109.56436683554094 L189.2960586368769,200.55286164104982 L94.33431831281807,200.55286164104982 L64.98957150431474,109.56436683554094 z" transform="rotate(-180 141.81515502929688,126.94173431396483) "/></g>

<g transform="translate(400,400)">
<path fill="#4a90d6" stroke-width="2" stroke-linejoin="round" fill-rule="nonzero" id="svg_10" d="M55.40735370955069,163.89054206409455 L128.2095513326341,36.48669622369417 L201.01174895571972,163.89054206409455 L55.40735370955069,163.89054206409455 z" style="color: rgb(34, 34, 34);" transform="rotate(-180 128.2095489501953,100.18862915039061) "/></g>

<g transform="translate(600,400)">
<path fill="#67e7e7" stroke="none" stroke-width="2" stroke-linejoin="round" fill-rule="nonzero" id="svg_11" d="M92.5587,6.442162328186035 C116.57305,6.2465423281860355 260.9535,60.886622328186036 93.66981,186.34939232818604 C-73.61388,60.886622328186036 68.54435,6.637792328186035 92.5587,6.442162328186035 z"/></g>

<g transform="translate(750,400)">
<path fill="#4a90d6" fill-opacity="1" stroke="none" stroke-opacity="1" stroke-width="2" stroke-dasharray="none" stroke-linejoin="round" stroke-linecap="butt" stroke-dashoffset="" fill-rule="nonzero" opacity="1" d="M156,89.5 C156,61.59944751381215 177.9281767955801,39 205,39 C232.0718232044199,39 254,61.59944751381215 254,89.5 C254,117.40055248618785 232.0718232044199,140 205,140 C177.9281767955801,140 156,117.40055248618785 156,89.5 Z" id="svg_12"/></g>

<g transform="translate(1000,400)">
<path fill="#4a90d6" stroke-width="2" stroke-linejoin="round" fill-rule="nonzero" id="svg_13" d="M31.270110123558307,87.71031575315646 L62.79789422133284,24.654757432082185 L146.87197856574895,24.654757432082185 L178.39975278904976,87.71031575315646 L146.87197856574895,150.76587407423315 L62.79789422133284,150.76587407423315 L31.270110123558307,87.71031575315646 z"/></g>

<g transform="translate(0,200)">
<rect fill="#4a90d6" stroke-width="2" stroke-linejoin="round" fill-rule="nonzero" id="svg_14" x="77" y="61" width="120" height="50" style="color: rgb(34, 34, 34);"/>
</g>

<g transform="translate(200,200)">
<path fill="#67e7e7" stroke="none" fill-rule="nonzero" id="svg_15" d="M67.11111,90.44445068725587 L67.11111,88.77778068725586 C67.11111,48.58373068725586 33.58372,17.11111068725586 73.77778,17.11111068725586 L73.77778,17.11111068725586 C93.07964,17.11111068725586 111.59096,24.778740687255862 125.23943,38.427220687255854 C138.88791,52.07571068725586 146.55556,70.58702068725586 146.55556,89.88889068725587 L146.55556,89.88889068725587 C146.55556,130.08294068725587 113.97183,162.66667068725587 73.77778,162.66667068725587 L73.77778,162.66667068725587 C33.58373,162.66667068725587 67.11111,130.63850068725586 67.11111,90.44445068725587 zM99.61111,89.88889068725587 L99.61111,89.88889068725587 C99.61111,109.98591068725585 79.23632,86.83333068725585 99.33334,86.83333068725585 C119.43037,86.83333068725585 99.05555,108.87480068725586 99.05555,88.77778068725586 C99.05555,68.68075068725585 118.8748,89.61111068725586 98.77778,89.61111068725586 L99.88889,89.05556068725586 C79.79187,89.05556068725586 99.61111,69.79187068725585 99.61111,89.88889068725587 z" transform="rotate(-180 100.2802734375,89.88888549804688) "/>
</g>

<g transform="translate(400,200)">
<path fill="#4a90d6" stroke-width="2" stroke-linejoin="round" fill-rule="nonzero" id="svg_16" d="M55.40735370955069,163.89054206409455 L128.2095513326341,36.48669622369417 L201.01174895571972,163.89054206409455 L55.40735370955069,163.89054206409455 z" style="color: rgb(34, 34, 34);"  transform="rotate(-90 128.20954895019534,100.18862915039064) "/>
</g>

<g transform="translate(600,200)">
<path fill="#67e7e7" stroke="none" fill-rule="nonzero" id="svg_17" d="M67.11111,90.44445068725587 L67.11111,88.77778068725586 C67.11111,48.58373068725586 33.58372,17.11111068725586 73.77778,17.11111068725586 L73.77778,17.11111068725586 C93.07964,17.11111068725586 111.59096,24.778740687255862 125.23943,38.427220687255854 C138.88791,52.07571068725586 146.55556,70.58702068725586 146.55556,89.88889068725587 L146.55556,89.88889068725587 C146.55556,130.08294068725587 113.97183,162.66667068725587 73.77778,162.66667068725587 L73.77778,162.66667068725587 C33.58373,162.66667068725587 67.11111,130.63850068725586 67.11111,90.44445068725587 zM99.61111,89.88889068725587 L99.61111,89.88889068725587 C99.61111,109.98591068725585 79.23632,86.83333068725585 99.33334,86.83333068725585 C119.43037,86.83333068725585 99.05555,108.87480068725586 99.05555,88.77778068725586 C99.05555,68.68075068725585 118.8748,89.61111068725586 98.77778,89.61111068725586 L99.88889,89.05556068725586 C79.79187,89.05556068725586 99.61111,69.79187068725585 99.61111,89.88889068725587 z"/>
</g>

<g transform="translate(800,200)">
<path fill="#4a90d6" stroke-width="2" stroke-linejoin="round" fill-rule="nonzero" id="svg_18" d="M55.40735370955069,163.89054206409455 L128.2095513326341,36.48669622369417 L201.01174895571972,163.89054206409455 L55.40735370955069,163.89054206409455 z" style="color: rgb(34, 34, 34);" transform="rotate(90 128.20954895019534,100.18862915039064) "/>
</g>

<g transform="translate(1000,200)">
<path fill="#67e7e7" stroke="none" stroke-width="2" stroke-linejoin="round" fill-rule="nonzero" id="svg_19" d="M92.5587,6.442162328186035 C116.57305,6.2465423281860355 260.9535,60.886622328186036 93.66981,186.34939232818604 C-73.61388,60.886622328186036 68.54435,6.637792328186035 92.5587,6.442162328186035 z" transform="rotate(90 93.34449005126953,96.39552307128908) "/>
</g>

<g transform="translate(0,600)">
<rect fill="#4a90d6" stroke-width="2" stroke-linejoin="round" fill-rule="nonzero" id="svg_20" x="77" y="31" width="151.40658281409333" height="137.4175831060768" style="color: rgb(34, 34, 34);" />
</g>

<g transform="translate(200,600)">
<path fill="#4a90d6" stroke-width="2" stroke-linejoin="round" fill-rule="nonzero" id="svg_21" d="M26.839553302753792,109.47332979598119 L87.5326552259525,31.695551329966328 L154.17235937445483,31.695551329966328 L209.57959114269102,109.47332979598119 L26.839553302753792,109.47332979598119 z" transform="rotate(-180 118.2095718383789,70.58444213867186) "/>
</g>

<g transform="translate(400,600)">
<path fill="#4a90d6" stroke-width="2" stroke-linejoin="round" fill-rule="nonzero" id="svg_22" d="M26.839553302753792,109.47332979598119 L87.5326552259525,31.695551329966328 L154.17235937445483,31.695551329966328 L209.57959114269102,109.47332979598119 L26.839553302753792,109.47332979598119 z" />

</g>

<g transform="translate(600,600)">
<path fill="#4a90d6" stroke-width="2" stroke-linejoin="round" fill-rule="nonzero" id="svg_23" d="M64.98957150431474,109.56436683554094 L141.81505441662765,53.33062171461473 L218.64071779192975,109.56436683554094 L189.2960586368769,200.55286164104982 L94.33431831281807,200.55286164104982 L64.98957150431474,109.56436683554094 z"/>
</g>

<g transform="translate(800,600)">
<path fill="#4a90d6" stroke-width="2" stroke-linejoin="round" fill-rule="nonzero" id="svg_24" d="M55.95680428585608,163.89054206409455 L128.7590019089395,36.48669622369417 L201.5611995320251,163.89054206409455 L55.95680428585608,163.89054206409455 z" style="color: rgb(34, 34, 34);" />
</g>

<g transform="translate(1000,600)">
<rect fill="#4a90d6" stroke-width="2" stroke-linejoin="round" fill-rule="nonzero" id="svg_25" x="77" y="31" width="80" height="100" style="color: rgb(34, 34, 34);"/>
</g>

<g transform="translate(0,800)">
<path fill="#67e7e7" stroke="none" fill-rule="nonzero" id="svg_26" d="M67.11111,90.44445L67.11111,88.77778C67.11111,48.58373 33.58372,17.11111 73.77778,17.11111L73.77778,17.11111C93.07964,17.11111 102.14652,35.3343 115.79499,48.98278C129.44347,62.63127 146.55556,70.58702 146.55556,89.88889L146.55556,89.88889C62.11111,79.52738 113.97183,162.66667 73.77778,162.66667L73.77778,162.66667C33.58373,162.66667 67.11111,130.6385 67.11111,90.44445zM99.61111,89.88889L99.61111,89.88889C99.61111,109.98591 79.23632,86.83333 99.33334,86.83333C119.43037,86.83333 99.05555,108.8748 99.05555,88.77778C99.05555,68.68075 118.8748,89.61111 98.77778,89.61111L99.88889,89.05556C79.79187,89.05556 99.61111,69.79187 99.61111,89.88889z" transform="rotate(-180 100.2802734375,89.88888549804688) "/>
</g>

<g transform="translate(200,800)">
<path fill="#67e7e7" stroke="none"  fill-rule="nonzero" id="svg_27" d="M47.51943,30.29501L47.51943,28.50656C47.51943,-14.6244 62.49667,33.8719 78.24043,11.21823L78.24043,10.62209C116.36007,10.62209 132.07211,33.75371 144.76342,38.86108C157.45474,43.96844 44.67022,93.85785 145.1683,39.83339L140.77957,82.75613C-13.21375,122.74863 162.0092,35.0642 60.68557,107.79438L60.68557,107.79438C-18.6945,107.79438 47.51943,73.42597 47.51943,30.29501zM108.41281,15.98743L111.70435,29.69886C111.70435,51.26433 91.21495,49.07369 79.33761,40.13146C67.46028,31.18923 94.1495,17.87999 110.60717,28.50656C127.06483,39.13313 89.4038,69.93892 110.05859,29.40078L91.40655,58.61209C51.71653,58.61209 108.41281,6.34493 108.41281,15.98743z" transform="rotate(-180 84.09571838378906,58.84163284301757) "/>
</g>

<g transform="translate(400,800)">
<path fill="#67e7e7" stroke-dashoffset="" fill-rule="nonzero" id="svg_28" d="M74.94205,129.14688L141.05316,92.72654L125.49759,127.48022L175.49761,152.48021L198.27538,173.69669L61.05316,175.36336L118.83094,151.3691L74.94205,129.14688z"/>
</g>

<g transform="translate(600,800)">
<path fill="#4a90d6" stroke-width="2" stroke-linejoin="round"  fill-rule="nonzero" id="svg_29" d="M12.34787991065682,11.759441374174228 L55.95123102683724,85.51107552367556 L260.12567922049703,132.31499965022553 L12.34787991065682,11.759441374174228 z"/>
</g>

<g transform="translate(800,800)">
<ellipse cx="100" cy="100" rx="75" ry="30" />
</g>

<g transform="translate(1000,800)">
<ellipse cx="100" cy="100" rx="30" ry="75" />
</g>
</svg>
