<svg xmlns="http://www.w3.org/2000/svg" xmlns:se="http://svg-edit.googlecode.com" xmlns:xlink="http://www.w3.org/1999/xlink" xmlns:dc="http://purl.org/dc/elements/1.1/" xmlns:cc="http://creativecommons.org/ns#" xmlns:rdf="http://www.w3.org/1999/02/22-rdf-syntax-ns#" xmlns:inkscape="http://www.inkscape.org/namespaces/inkscape" width="777" height="480" style="">                                    <title>my vector image</title>                                    <!-- Created with Vector Paint - http://www.vectorpaint.yaks.com/ https://chrome.google.com/webstore/detail/hnbpdiengicdefcjecjbnjnoifekhgdo -->                                    <rect id="backgroundrect" width="100%" height="100%" x="0" y="0" fill="#FFFFFF" stroke="none"/>                                <g class="currentLayer" style=""><title>Layer 1</title><path fill="#4a90d6" stroke-width="2" stroke-linejoin="round" stroke-dashoffset="" fill-rule="nonzero" marker-start="" marker-mid="" marker-end="" id="svg_8" d="M399.972898131586,105.96938906589044 L400.1356167945466,105.80667042157276 L400.3657386015194,105.80667042157276 L400.52845726448004,105.96938906589044 L400.52845726448004,106.19951089150621 L400.3657386015194,106.36222955446681 L400.1356167945466,106.36222955446681 L399.972898131586,106.19951089150621 L399.972898131586,105.96938906589044 z" style="color: rgb(0, 0, 0);"/><path fill="#4a90d6" stroke-width="2" stroke-linejoin="round" stroke-dashoffset="" fill-rule="nonzero" marker-start="" marker-mid="" marker-end="" id="svg_7" d="M126.17678128288347,134.02268359169915 L126.45455876653544,133.8205854291162 L126.73233690268648,134.02268359169915 L126.62623557706229,134.34968666746508 L126.28288292543577,134.34968666746508 L126.17678128288347,134.02268359169915 z" style="color: rgb(0, 0, 0);" class=""/><path fill="#4a90d6" stroke-width="2" stroke-linejoin="round" stroke-dashoffset="" fill-rule="nonzero" marker-start="" marker-mid="" marker-end="" id="svg_11" d="M103.91165825110753,68.19864916400225 L103.95044675678173,68.03079782070806 L104.10749124086982,67.95609684413483 L104.26453576438718,68.03079782070806 L104.30332497978776,68.19864916400225 L104.1946436967039,68.33325638420115 L104.02033879817883,68.33325638420115 L103.91165825110753,68.19864916400225 z" style="color: rgb(0, 0, 0);"/><path fill="#4a90d6" stroke-width="2" stroke-linejoin="round" stroke-dashoffset="" fill-rule="nonzero" marker-start="" marker-mid="" marker-end="" id="svg_1" d="M48.43946686722227,96.17207865356494 L74.99883123792478,50.66171279391338 L149.1160649082715,122.44941627490333 L148.80975383227891,122.44941627490333 L149.11607756157107,122.9933894099598 L148.25994265935964,122.60095808655431 L148.25994265935964,122.29789950113943 L149.11607756157107,123.29646051431824 L148.80975383227891,121.75392636608295 L149.1160649082715,122.44941627490333 L74.99883123792478,194.23714479378035 L48.43946686722227,148.7267789341288 L48.43946686722227,96.17207865356494 z" style="color: rgb(0, 0, 0);" class="" transform="rotate(90 117.66667175292969,84.88889312744142) "/><path fill="#4a90d6" stroke-width="2" stroke-linejoin="round" stroke-dashoffset="" fill-rule="nonzero" marker-start="" marker-mid="" marker-end="" id="svg_4" d="M79.36177757983823,82.62223020187304 L79.43621055312157,82.493317975003 L79.56512277999161,82.41888500171966 L79.7139887452011,82.41888500171966 L79.84290097207115,82.493317975003 L79.91733392671165,82.62223020187304 L79.91733392671165,82.77109616708255 L79.84290097207115,82.90000839395258 L79.7139887452011,82.97444134859309 L79.56512277999161,82.97444134859309 L79.43621055312157,82.90000839395258 L79.36177757983823,82.77109616708255 L79.36177757983823,82.62223020187304 z" style="color: rgb(0, 0, 0);" class=""/></g></svg>