<svg xmlns="http://www.w3.org/2000/svg" xmlns:se="http://svg-edit.googlecode.com" xmlns:xlink="http://www.w3.org/1999/xlink" xmlns:dc="http://purl.org/dc/elements/1.1/" xmlns:cc="http://creativecommons.org/ns#" xmlns:rdf="http://www.w3.org/1999/02/22-rdf-syntax-ns#" xmlns:inkscape="http://www.inkscape.org/namespaces/inkscape" width="777" height="480" style="">                                    <title>my vector image</title>                                    <!-- Created with Vector Paint - http://www.vectorpaint.yaks.com/ https://chrome.google.com/webstore/detail/hnbpdiengicdefcjecjbnjnoifekhgdo -->                                    <rect id="backgroundrect" width="100%" height="100%" x="0" y="0" fill="#FFFFFF" stroke="none"/>                                <g class="currentLayer" style=""><title>Layer 1</title><path fill="#4a90d6" stroke-width="2" stroke-linejoin="round" stroke-dashoffset="" fill-rule="nonzero" marker-start="" marker-mid="" marker-end="" id="svg_8" d="M399.972898131586,105.96938906589044 L400.1356167945466,105.80667042157276 L400.3657386015194,105.80667042157276 L400.52845726448004,105.96938906589044 L400.52845726448004,106.19951089150621 L400.3657386015194,106.36222955446681 L400.1356167945466,106.36222955446681 L399.972898131586,106.19951089150621 L399.972898131586,105.96938906589044 z" style="color: rgb(0, 0, 0);"/><path fill="#67e7e7" stroke="none" stroke-dashoffset="" fill-rule="nonzero" marker-start="" marker-mid="" marker-end="" id="svg_9" d="M67.11111,90.44445L67.11111,88.77778C67.11111,48.58373 33.58372,17.11111 73.77778,17.11111L73.77778,17.11111C93.07964,17.11111 102.14652,35.3343 115.79499,48.98278C129.44347,62.63127 146.55556,70.58702 146.55556,89.88889L146.55556,89.88889C62.11111,79.52738 113.97183,162.66667 73.77778,162.66667L73.77778,162.66667C33.58373,162.66667 67.11111,130.6385 67.11111,90.44445zM99.61111,89.88889L99.61111,89.88889C99.61111,109.98591 79.23632,86.83333 99.33334,86.83333C119.43037,86.83333 99.05555,108.8748 99.05555,88.77778C99.05555,68.68075 118.8748,89.61111 98.77778,89.61111L99.88889,89.05556C79.79187,89.05556 99.61111,69.79187 99.61111,89.88889z" style="color: rgb(0, 0, 0);" class="selected" transform="rotate(-180 100.2802734375,89.88888549804688) "/><path fill="#67e7e7" stroke="#000000" stroke-dashoffset="" fill-rule="nonzero" marker-start="" marker-mid="" marker-end="" id="svg_11" d="M298.4444444302935,1.2777777848532423 L298.4444444302935,1.2777777848532423 C298.4444444302935,1.124365364838189 298.5688097951317,1 298.72222221514676,1 L298.72222221514676,1 C298.7958934325341,1 298.8665473306798,1.0292657725575287 298.9186407324541,1.0813592116174706 C298.97073419015686,1.1334526693202172 299,1.2041065115374874 299,1.2777777848532423 L299,1.2777777848532423 C299,1.4311901862254914 298.8756346351618,1.5555555697064847 298.72222221514676,1.5555555697064847 L298.72222221514676,1.5555555697064847 C298.5688098137745,1.5555555697064847 298.4444444302935,1.4311901862254914 298.4444444302935,1.2777777848532423 zM298.58333332272014,1.2777777848532423 L298.58333332272014,1.2777777848532423 C298.58333332272014,1.3544839762179646 298.64551604242484,1.4166666772798635 298.72222221514676,1.4166666772798635 C298.7989284437971,1.4166666772798635 298.8611111075734,1.3544839762179646 298.8611111075734,1.2777777848532423 C298.8611111075734,1.2010715934885199 298.7989284065115,1.1388888924266212 298.72222221514676,1.1388888924266212 L298.72222221514676,1.1388888924266212 C298.64551604242484,1.1388888924266212 298.58333332272014,1.2010716121313243 298.58333332272014,1.2777777848532423 z" style="color: rgb(0, 0, 0);"/></g></svg>