<svg xmlns="http://www.w3.org/2000/svg" xmlns:se="http://svg-edit.googlecode.com" xmlns:xlink="http://www.w3.org/1999/xlink" xmlns:dc="http://purl.org/dc/elements/1.1/" xmlns:cc="http://creativecommons.org/ns#" xmlns:rdf="http://www.w3.org/1999/02/22-rdf-syntax-ns#" xmlns:inkscape="http://www.inkscape.org/namespaces/inkscape" width="777" height="480" style="">                                    <title>my vector image</title>                                    <!-- Created with Vector Paint - http://www.vectorpaint.yaks.com/ https://chrome.google.com/webstore/detail/hnbpdiengicdefcjecjbnjnoifekhgdo -->                                    <rect id="backgroundrect" width="100%" height="100%" x="0" y="0" fill="#FFFFFF" stroke="none"/>                                <g class="currentLayer" style=""><title>Layer 1</title><path fill="#4a90d6" stroke-width="2" stroke-linejoin="round" stroke-dashoffset="" fill-rule="nonzero" marker-start="" marker-mid="" marker-end="" id="svg_8" d="M399.972898131586,105.96938906589044 L400.1356167945466,105.80667042157276 L400.3657386015194,105.80667042157276 L400.52845726448004,105.96938906589044 L400.52845726448004,106.19951089150621 L400.3657386015194,106.36222955446681 L400.1356167945466,106.36222955446681 L399.972898131586,106.19951089150621 L399.972898131586,105.96938906589044 z" style="color: rgb(0, 0, 0);"/><path fill="#67e7e7" stroke="none" stroke-dashoffset="" fill-rule="nonzero" marker-start="" marker-mid="" marker-end="" id="svg_9" d="M47.51943,30.29501L47.51943,28.50656C47.51943,-14.6244 62.49667,33.8719 78.24043,11.21823L78.24043,10.62209C116.36007,10.62209 132.07211,33.75371 144.76342,38.86108C157.45474,43.96844 44.67022,93.85785 145.1683,39.83339L140.77957,82.75613C-13.21375,122.74863 162.0092,35.0642 60.68557,107.79438L60.68557,107.79438C-18.6945,107.79438 47.51943,73.42597 47.51943,30.29501zM108.41281,15.98743L111.70435,29.69886C111.70435,51.26433 91.21495,49.07369 79.33761,40.13146C67.46028,31.18923 94.1495,17.87999 110.60717,28.50656C127.06483,39.13313 89.4038,69.93892 110.05859,29.40078L91.40655,58.61209C51.71653,58.61209 108.41281,6.34493 108.41281,15.98743z" style="color: rgb(0, 0, 0);" class="selected" transform="rotate(-180 84.09571838378906,58.84163284301757) "/><path fill="#67e7e7" stroke="#000000" stroke-dashoffset="" fill-rule="nonzero" marker-start="" marker-mid="" marker-end="" id="svg_11" d="M298.4444444302935,1.2777777848532423 L298.4444444302935,1.2777777848532423 C298.4444444302935,1.124365364838189 298.5688097951317,1 298.72222221514676,1 L298.72222221514676,1 C298.7958934325341,1 298.8665473306798,1.0292657725575287 298.9186407324541,1.0813592116174706 C298.97073419015686,1.1334526693202172 299,1.2041065115374874 299,1.2777777848532423 L299,1.2777777848532423 C299,1.4311901862254914 298.8756346351618,1.5555555697064847 298.72222221514676,1.5555555697064847 L298.72222221514676,1.5555555697064847 C298.5688098137745,1.5555555697064847 298.4444444302935,1.4311901862254914 298.4444444302935,1.2777777848532423 zM298.58333332272014,1.2777777848532423 L298.58333332272014,1.2777777848532423 C298.58333332272014,1.3544839762179646 298.64551604242484,1.4166666772798635 298.72222221514676,1.4166666772798635 C298.7989284437971,1.4166666772798635 298.8611111075734,1.3544839762179646 298.8611111075734,1.2777777848532423 C298.8611111075734,1.2010715934885199 298.7989284065115,1.1388888924266212 298.72222221514676,1.1388888924266212 L298.72222221514676,1.1388888924266212 C298.64551604242484,1.1388888924266212 298.58333332272014,1.2010716121313243 298.58333332272014,1.2777777848532423 z" style="color: rgb(0, 0, 0);"/></g></svg>