<svg xmlns="http://www.w3.org/2000/svg" xmlns:se="http://svg-edit.googlecode.com" xmlns:xlink="http://www.w3.org/1999/xlink" xmlns:dc="http://purl.org/dc/elements/1.1/" xmlns:cc="http://creativecommons.org/ns#" xmlns:rdf="http://www.w3.org/1999/02/22-rdf-syntax-ns#" xmlns:inkscape="http://www.inkscape.org/namespaces/inkscape" width="777" height="480" style="">                                    <title>my vector image</title>                                    <!-- Created with Vector Paint - http://www.vectorpaint.yaks.com/ https://chrome.google.com/webstore/detail/hnbpdiengicdefcjecjbnjnoifekhgdo -->                                    <rect id="backgroundrect" width="100%" height="100%" x="0" y="0" fill="#FFFFFF" stroke="none"/>                                <g class="currentLayer" style=""><title>Layer 1</title><path fill="#4a90d6" stroke-width="2" stroke-linejoin="round" stroke-dashoffset="" fill-rule="nonzero" marker-start="" marker-mid="" marker-end="" id="svg_8" d="M399.972898131586,105.96938906589044 L400.1356167945466,105.80667042157276 L400.3657386015194,105.80667042157276 L400.52845726448004,105.96938906589044 L400.52845726448004,106.19951089150621 L400.3657386015194,106.36222955446681 L400.1356167945466,106.36222955446681 L399.972898131586,106.19951089150621 L399.972898131586,105.96938906589044 z" style="color: rgb(0, 0, 0);"/><path fill="#67e7e7" stroke="#000000" stroke-dashoffset="" fill-rule="nonzero" marker-start="" marker-mid="" marker-end="" id="svg_11" d="M298.4444444302935,1.2777777848532423 L298.4444444302935,1.2777777848532423 C298.4444444302935,1.124365364838189 298.5688097951317,1 298.72222221514676,1 L298.72222221514676,1 C298.7958934325341,1 298.8665473306798,1.0292657725575287 298.9186407324541,1.0813592116174706 C298.97073419015686,1.1334526693202172 299,1.2041065115374874 299,1.2777777848532423 L299,1.2777777848532423 C299,1.4311901862254914 298.8756346351618,1.5555555697064847 298.72222221514676,1.5555555697064847 L298.72222221514676,1.5555555697064847 C298.5688098137745,1.5555555697064847 298.4444444302935,1.4311901862254914 298.4444444302935,1.2777777848532423 zM298.58333332272014,1.2777777848532423 L298.58333332272014,1.2777777848532423 C298.58333332272014,1.3544839762179646 298.64551604242484,1.4166666772798635 298.72222221514676,1.4166666772798635 C298.7989284437971,1.4166666772798635 298.8611111075734,1.3544839762179646 298.8611111075734,1.2777777848532423 C298.8611111075734,1.2010715934885199 298.7989284065115,1.1388888924266212 298.72222221514676,1.1388888924266212 L298.72222221514676,1.1388888924266212 C298.64551604242484,1.1388888924266212 298.58333332272014,1.2010716121313243 298.58333332272014,1.2777777848532423 z" style="color: rgb(0, 0, 0);"/><path fill="#67e7e7" stroke-dashoffset="" fill-rule="nonzero" marker-start="" marker-mid="" marker-end="" id="svg_1" d="M74.94205,129.14688L141.05316,92.72654L125.49759,127.48022L175.49761,152.48021L198.27538,173.69669L61.05316,175.36336L118.83094,151.3691L74.94205,129.14688z" style="color: rgb(0, 0, 0);" class="selected"/><path fill="#67e7e7" stroke-dashoffset="" fill-rule="nonzero" marker-start="" marker-mid="" marker-end="" id="svg_3" d="M153.8131559177618,115.30694124619579 L154.09093585553228,115.03009434212221 L154.36871579330275,115.30694124619579 L154.22982581506474,115.30694124619579 L154.22982581506474,115.58512028595018 L153.95204589599982,115.58512028595018 L153.95204589599982,115.30694124619579 L153.8131559177618,115.30694124619579 z" style="color: rgb(0, 0, 0);"/><path fill="#67e7e7" stroke-dashoffset="" fill-rule="nonzero" marker-start="" marker-mid="" marker-end="" id="svg_9" d="M166.13727661963543,145.69270165633392 L196.44418378392268,115.48759221674695 L226.7510909482195,145.69270165633392 L211.59763634564217,145.69270165633392 L211.59763634564217,176.04315245042034 L181.2907312222068,176.04315245042034 L181.2907312222068,145.69270165633392 L166.13727661963543,145.69270165633392 z" transform="translate(139.2000023312039,99.11111034581685) scale(0.005) translate(-139.2000023312039,-99.11111034581685)" style="color: rgb(0, 0, 0);"/><path fill="#67e7e7" stroke-dashoffset="" fill-rule="nonzero" marker-start="" marker-mid="" marker-end="" id="svg_12" d="M48.22876789487737,36.533785536116326 L48.78485770144168,35.97956357692857 L49.340947508005996,36.533785536116326 L49.062902586000426,36.533785536116326 L49.062902586000426,37.09067430803 L48.506812816882935,37.09067430803 L48.506812816882935,36.533785536116326 L48.22876789487737,36.533785536116326 z" style="color: rgb(0, 0, 0);"/><path fill="#67e7e7" stroke-dashoffset="" fill-rule="nonzero" marker-start="" marker-mid="" marker-end="" id="svg_14" d="M115.67150417383485,122.1172676860276 L115.94928125704118,121.84042362692998 L116.22705834024752,122.1172676860276 L116.08816978929167,122.1172676860276 L116.08816978929167,122.39544386711654 L115.8103927247907,122.39544386711654 L115.8103927247907,122.1172676860276 L115.67150417383485,122.1172676860276 z" style="color: rgb(0, 0, 0);" class=""/></g></svg>